<svg xmlns="http://www.w3.org/2000/svg" viewBox="0 0 58 58">
    <path d="M12 0a4.51 4.51 0 00-4.47 4L7.5 5c0 2.2 1.8 4 4 4h6l2-4h12l-1.96 3.92c-.02.04 0 .08.05.08H50.5V0H12z" fill="#ead8bb"/>
    <path d="M29.5 9v26.2c0 .5-.67.7-.93.26L23.5 27l-5.08 8.46c-.26.43-.92.25-.92-.26V9h-6c-2.2 0-4-1.8-4-4v48.96A4.04 4.04 0 0011.54 58H50.5V9h-21z" fill="#6b4842"/>
    <path d="M12.5 9h-1c-2.2 0-4-1.8-4-4v48.96A4.04 4.04 0 0011.54 58h.96V9z" fill="#513531"/>
    <path d="M50.5 2h-9a1 1 0 100 2h9V2zM50.5 5h-8a1 1 0 100 2h8V5z" fill="#d3bea1"/>
    <path d="M19.5 5l-2 4v26.2c0 .5.67.7.93.26L23.5 27l5.08 8.46c.26.43.92.25.92-.26V9l2-4h-12z" fill="#dd352e"/>
    <path fill="#b02721" d="M19.5 5l-2 4h12l2-4z"/>
</svg>
