<svg xmlns="http://www.w3.org/2000/svg">
  <defs>
    <symbol id="user-edit" viewBox="0 0 640 512">
      <title>Редагувати особисту інформацію</title>
      <path fill="currentColor" d="M224 256c70.7 0 128-57.3 128-128S294.7 0 224 0 96 57.3 96 128s57.3 128 128 128zm89.6 32h-16.7c-22.2 10.2-46.9 16-72.9 16s-50.6-5.8-72.9-16h-16.7C60.2 288 0 348.2 0 422.4V464c0 26.5 21.5 48 48 48h274.9c-2.4-6.8-3.4-14-2.6-21.3l6.8-60.9 1.2-11.1 7.9-7.9 77.3-77.3c-24.5-27.7-60-45.5-99.9-45.5zm45.3 145.3l-6.8 61c-1.1 10.2 7.5 18.8 17.6 17.6l60.9-6.8 137.9-137.9-71.7-71.7-137.9 137.8zM633 268.9L595.1 231c-9.3-9.3-24.5-9.3-33.8 0l-37.8 37.8-4.1 4.1 71.8 71.7 41.8-41.8c9.3-9.4 9.3-24.5 0-33.9z"/>
    </symbol>
    <symbol id="user-graduate-edit" viewBox="0 0 170 137.28">
      <title>Редагувати навчальну інформацію</title>
      <path fill="currentColor" d="M59.27 0c-1.76 0-3.53.2-5.25.61L3.6 12.76c-4.79 1.16-4.79 7.2 0 8.36l1.7.4v15.45a6.28 6.28 0 0 0-3.18 5.37 6.25 6.25 0 0 0 2.94 5.21L.92 64.04c-.45 1.82.56 3.7 2.01 3.7h11.06c1.46 0 2.46-1.88 2.01-3.7l-4.13-16.49a6.25 6.25 0 0 0 2.94-5.21 6.28 6.28 0 0 0-3.17-5.37V23.05l17.46 4.2a33.6 33.6 0 0 0-3.7 15.09 33.86 33.86 0 1 0 67.73 0c0-5.45-1.4-10.53-3.7-15.08l25.47-6.14c4.82-1.16 4.82-7.17 0-8.33L64.53.6A22.66 22.66 0 0 0 59.27 0zm94.38 61.08a6.3 6.3 0 0 0-4.47 1.85l-10 10L138.1 74l19 18.97 11.05-11.06a6.37 6.37 0 0 0 0-8.97l-10.02-10.02a6.3 6.3 0 0 0-4.48-1.85zM36.23 78.01A35.57 35.57 0 0 0 .67 113.57v11a12.7 12.7 0 0 0 12.7 12.7h72.74c-.64-1.8-.9-3.7-.7-5.63l1.8-16.11.32-2.94 2.1-2.1 20.45-20.44A35.2 35.2 0 0 0 83.65 78h-4.42c-5.88 2.7-13.17 21.62-20.05 21.62-6.88 0-12.63-18.92-18.53-21.62zm95.89 1.98l-36.49 36.46-1.8 16.14a4.21 4.21 0 0 0 4.66 4.66l16.11-1.8 36.49-36.49z"/>
    </symbol>
    <symbol id="times-circle" viewBox="0 0 512 512">
      <path fill="currentColor" d="M256 8C119 8 8 119 8 256s111 248 248 248 248-111 248-248S393 8 256 8zm121.6 313.1c4.7 4.7 4.7 12.3 0 17L338 377.6c-4.7 4.7-12.3 4.7-17 0L256 312l-65.1 65.6c-4.7 4.7-12.3 4.7-17 0L134.4 338c-4.7-4.7-4.7-12.3 0-17l65.6-65-65.6-65.1c-4.7-4.7-4.7-12.3 0-17l39.6-39.6c4.7-4.7 12.3-4.7 17 0l65 65.7 65.1-65.6c4.7-4.7 12.3-4.7 17 0l39.6 39.6c4.7 4.7 4.7 12.3 0 17L312 256l65.6 65.1z"/>
    </symbol>
    <symbol id="user" viewBox="0 0 448 512">
      <path fill="currentColor" d="M224 256c70.7 0 128-57.3 128-128S294.7 0 224 0 96 57.3 96 128s57.3 128 128 128zm89.6 32h-16.7c-22.2 10.2-46.9 16-72.9 16s-50.6-5.8-72.9-16h-16.7C60.2 288 0 348.2 0 422.4V464c0 26.5 21.5 48 48 48h352c26.5 0 48-21.5 48-48v-41.6c0-74.2-60.2-134.4-134.4-134.4z"/>
    </symbol>
  </defs>
</svg>
