<svg xmlns="http://www.w3.org/2000/svg" viewBox="0 0 509.29 509.29">
    <circle cx="254.64" cy="254.64" r="254.64" fill="#fbd303"/>
    <g fill="#0090ff">
        <ellipse cx="116.64" cy="382.81" rx="21.02" ry="29.5"/>
        <ellipse cx="392.65" cy="382.81" rx="21.02" ry="29.5"/>
        <path d="M314.32 241.08l-13.22-3.39-15.26 39-31.2 4.4-31.2-4.4-15.25-39-13.22 3.4s-65.78 22.37-67.14 67.8l126.81 62.06 126.82-62.05c-1.36-45.78-67.14-67.82-67.14-67.82z"/>
    </g>
    <path d="M255.66 320.76s-59.34-46.79-106.47-49.16v49.16h106.47z" fill="#f1f3f7"/>
    <path d="M255.66 320.76s-89.17-36.28-132.58-32.89v50.19l132.58-17.3z" fill="#fcfcfd"/>
    <g fill="#3eb9e3">
        <ellipse transform="rotate(-127.29 224.17 265.08)" cx="224.17" cy="265.08" rx="38.65" ry="26.45"/>
        <ellipse transform="rotate(127.29 285.4 265)" cx="285.39" cy="265" rx="38.65" ry="26.45"/>
    </g>
    <path d="M295 251.93c-17.64 29.84-60.7 29.84-78.33 0v-51.2h78.32v51.2z" fill="#f0ba7a"/>
    <circle cx="254.64" cy="108.84" r="98.33" fill="#393d47"/>
    <path d="M297.37 86.46h-85.45a37.2 37.2 0 00-37.3 37.3v25.43c0 44.08 35.6 79.68 79.69 79.68s79.68-35.6 79.68-79.68v-25.43a36.62 36.62 0 00-36.62-37.3z" fill="#f7cfa2"/>
    <g fill="#393d47">
        <path d="M188.86 73.58v60.7h78.67l3.05-35.95 4.75 35.94h41.36v-60.7zM255.66 482.5l-140.38-16.95-8.81-165.81 149.2 21.02z"/>
    </g>
    <path d="M255.32 320.76s59.34-46.79 106.47-49.16v49.16H255.32z" fill="#f1f3f7"/>
    <path d="M255.32 320.76s89.18-36.28 132.58-32.89v50.19l-132.58-17.3z" fill="#fcfcfd"/>
    <path fill="#333842" d="M255.32 482.5l140.72-16.95 8.47-165.81-149.19 21.02z"/>
    <path d="M149.87 382.81a5.21 5.21 0 00-5.09-5.08h-3.73a5.21 5.21 0 005.09-5.09v-.34a5.21 5.21 0 00-5.09-5.08h-27.12c-6.1 0-10.85 4.74-10.85 10.85l3.05 20c0 6.1 4.75 10.85 10.85 10.85h20.68a4.63 4.63 0 004.75-4.75v-1.01a4.63 4.63 0 00-4.75-4.75h4.41a5.21 5.21 0 005.09-5.09v-.34a5.21 5.21 0 00-5.09-5.08h2.71a5.21 5.21 0 005.09-5.09z" fill="#f7cfa2"/>
    <path d="M359.42 382.81a5.21 5.21 0 015.08-5.08h3.73a5.21 5.21 0 01-5.08-5.09v-.34a5.21 5.21 0 015.08-5.08h27.13c6.1 0 10.85 4.74 10.85 10.85l-3.05 20c0 6.1-4.75 10.85-10.85 10.85h-20.69a4.63 4.63 0 01-4.74-4.75v-1.01a4.63 4.63 0 014.74-4.75h-4.4a5.21 5.21 0 01-5.09-5.09v-.34a5.21 5.21 0 015.09-5.08h-2.72a5.21 5.21 0 01-5.08-5.09z" fill="#f0ba7a"/>
</svg>
