<svg height="512pt" viewBox="-47 0 512 512" width="512pt" xmlns="http://www.w3.org/2000/svg">
    <path d="M403.86 115.32c0-9.18-5.75-17-13.84-20.1V7.7a7.69 7.69 0 00-15.38 0v87.54a21.51 21.51 0 000 40.17v24a7.69 7.69 0 0015.38 0v-24a21.51 21.51 0 0013.84-20.08zm0 0" fill="#ffd664"/>
    <path d="M393.04 96.66a21.53 21.53 0 01-29.36 29.37 21.52 21.52 0 1029.36-29.37zm0 0" fill="#f9c646"/>
    <path d="M397.71 0H20.5a7.69 7.69 0 100 15.38h65.6v97.89h246v-97.9h65.61a7.69 7.69 0 100-15.37zm0 0" fill="#636363"/>
    <path d="M147.6 342.87L60.06 367.2A82 82 0 000 446.2V502a10 10 0 0010 10h398.21a10 10 0 0010-10v-55.8a82 82 0 00-60.05-79l-87.55-24.33zm0 0" fill="#ddf5ff"/>
    <path d="M228.58 416.67l12.3 61.5L209.11 512l-31.78-33.82 12.3-61.5zm0 0" fill="#ff6969"/>
    <path d="M240.88 478.18l-12.3-61.5h-19.47l15.59 78.72 16.18-17.22zm0 0" fill="#ea4747"/>
    <path d="M418.21 446.2V502a10 10 0 01-10 10h-199.1l60.47-63.55 30.72-97.33 57.85 16.08a81.99 81.99 0 0160.06 79zm0 0" fill="#636363"/>
    <path d="M358.16 367.2l-6.64-1.85a81.97 81.97 0 0128.76 62.35V512h27.93a10 10 0 0010-10v-55.8a82 82 0 00-60.05-79zm0 0" fill="#494949"/>
    <path d="M60.05 367.2l57.86-16.08 30.72 97.33L209.1 512H10a10 10 0 01-10-10v-55.8a82 82 0 0160.05-79zm0 0" fill="#636363"/>
    <path d="M246 317.25l-36.9 36.9-36.9-36.9v-58.43H246zm0 0" fill="#f9b3a7"/>
    <path d="M305.46 113.27h26.65v41h-26.65zm0 0" fill="#ffd664"/>
    <path d="M312.63 7.69v64.58a20.5 20.5 0 01-20.5 20.5H86.1v20.5h246V7.69zm0 0" fill="#494949"/>
    <path d="M86.1 113.27h26.65v41H86.1zm0 0" fill="#ffd664"/>
    <path d="M209.1 113.27h-96.35v33.82H97.38a20.5 20.5 0 00-20.5 20.5v14.35a20.5 20.5 0 0020.5 20.5h16.6c7.36 45.9 47.14 80.98 95.13 80.98a96.35 96.35 0 0096.35-96.35v-73.8zm0 0" fill="#feccc1"/>
    <path d="M320.83 147.09h-15.37v-33.82h-28.7v73.8c0 48.33-35.6 88.36-82 95.29 4.68.7 9.47 1.06 14.35 1.06 47.98 0 87.76-35.07 95.12-80.98h16.6a20.5 20.5 0 0020.5-20.5V167.6a20.5 20.5 0 00-20.5-20.5zm0 0" fill="#f9b3a7"/>
    <path d="M209.1 416.67h19.48l19.99-23.06-39.46-39.47-39.47 39.47 19.99 23.06zm0 0" fill="#ff6969"/>
    <path d="M209.1 354.14l-12.04 12.05 20.67 20.67c3.8 3.8 4.02 9.9.5 13.96l-13.74 15.85h24.09l19.99-23.06zm0 0" fill="#ea4747"/>
    <path d="M169.64 393.6l39.47-39.46-36.9-36.9-25.12 25.8zm0 0M248.57 393.6l-39.46-39.46 36.9-36.9 25.1 25.8zm0 0" fill="#c1e9f4"/>
    <g fill="#494949">
        <path d="M348 480.22V512h-15.38v-31.78a7.7 7.7 0 0115.38 0zm0 0M70.21 512v-31.78a7.69 7.69 0 0115.38 0V512zm0 0"/>
    </g>
</svg>
