<svg height="512pt" viewBox="-47 0 512 512" width="512pt" xmlns="http://www.w3.org/2000/svg"><path d="m403.859375 115.316406c0-9.175781-5.75-16.992187-13.835937-20.089844v-87.539062c0-4.246094-3.445313-7.6875-7.6875-7.6875-4.246094 0-7.691407 3.441406-7.691407 7.6875v87.542969c-8.085937 3.097656-13.835937 10.910156-13.835937 20.085937 0 9.175782 5.75 16.988282 13.835937 20.085938v23.988281c0 4.246094 3.445313 7.6875 7.691407 7.6875 4.242187 0 7.6875-3.441406 7.6875-7.6875v-23.988281c8.085937-3.097656 13.835937-10.910156 13.835937-20.085938zm0 0" fill="#ffd664"/><path d="m393.042969 96.660156c1.816406 3.15625 2.871093 6.808594 2.871093 10.710938 0 11.886718-9.636718 21.527344-21.523437 21.527344-3.90625 0-7.554687-1.054688-10.710937-2.871094 3.714843 6.457031 10.667968 10.8125 18.652343 10.8125 11.890625 0 21.527344-9.636719 21.527344-21.523438 0-7.984375-4.355469-14.9375-10.816406-18.65625zm0 0" fill="#f9c646"/><path d="m397.710938 0h-377.210938c-4.246094 0-7.6875 3.441406-7.6875 7.6875s3.441406 7.6875 7.6875 7.6875h65.601562v97.890625h246.007813v-97.890625h65.601563c4.246093 0 7.6875-3.441406 7.6875-7.6875s-3.445313-7.6875-7.6875-7.6875zm0 0" fill="#636363"/><path d="m147.605469 342.871094-87.550781 24.320312c-35.492188 9.859375-60.054688 42.171875-60.054688 79.007813v55.800781c0 5.523438 4.476562 10 10 10h398.210938c5.523437 0 10-4.476562 10-10v-55.800781c0-36.835938-24.5625-69.148438-60.054688-79.007813l-87.550781-24.320312zm0 0" fill="#ddf5ff"/><path d="m228.578125 416.671875 12.304687 61.503906-31.777343 33.824219-31.777344-33.824219 12.300781-61.503906zm0 0" fill="#ff6969"/><path d="m240.882812 478.175781-12.300781-61.503906h-19.476562l15.59375 78.726563c8.089843-8.609376 16.183593-17.222657 16.183593-17.222657zm0 0" fill="#ea4747"/><path d="m418.210938 446.203125v55.796875c0 5.523438-4.476563 10-10 10h-199.105469l60.476562-63.550781 30.71875-97.328125 57.851563 16.074218c35.496094 9.851563 60.058594 42.167969 60.058594 79.007813zm0 0" fill="#636363"/><path d="m358.15625 367.191406-6.632812-1.84375c17.816406 15.226563 28.757812 37.777344 28.757812 62.351563v84.300781h27.929688c5.519531 0 10-4.476562 10-10v-55.800781c0-36.835938-24.5625-69.148438-60.054688-79.007813zm0 0" fill="#494949"/><path d="m60.054688 367.191406 57.851562-16.070312 30.722656 97.328125 60.476563 63.550781h-199.105469c-5.523438 0-10-4.476562-10-10v-55.800781c0-36.835938 24.5625-69.148438 60.054688-79.007813zm0 0" fill="#636363"/><path d="m246.007812 317.246094-36.902343 36.898437-36.902344-36.898437v-58.425782h73.804687zm0 0" fill="#f9b3a7"/><path d="m305.457031 113.265625h26.652344v41h-26.652344zm0 0" fill="#ffd664"/><path d="m312.632812 7.6875v64.578125c0 11.320313-9.179687 20.5-20.5 20.5h-206.03125v20.5h246.007813v-105.578125zm0 0" fill="#494949"/><path d="m86.101562 113.265625h26.652344v41h-26.652344zm0 0" fill="#ffd664"/><path d="m209.105469 113.265625h-96.351563v33.824219h-15.375c-11.324218 0-20.5 9.179687-20.5 20.5v14.351562c0 11.320313 9.175782 20.5 20.5 20.5h16.601563c7.363281 45.90625 47.144531 80.976563 95.125 80.976563 53.214843 0 96.351562-43.136719 96.351562-96.351563v-73.800781zm0 0" fill="#feccc1"/><path d="m320.832031 147.089844h-15.375v-33.824219h-28.699219v73.800781c0 48.335938-35.597656 88.359375-82.003906 95.289063 4.683594.699219 9.472656 1.0625 14.351563 1.0625 47.980469 0 87.761719-35.070313 95.125-80.976563h16.601562c11.324219 0 20.5-9.175781 20.5-20.5v-14.347656c0-11.324219-9.175781-20.503906-20.5-20.503906zm0 0" fill="#f9b3a7"/><path d="m209.105469 416.671875h19.472656l19.988281-23.0625-39.460937-39.464844-39.464844 39.464844 19.988281 23.0625zm0 0" fill="#ff6969"/><path d="m209.105469 354.144531-12.042969 12.046875 20.667969 20.667969c3.804687 3.804687 4.023437 9.898437.5 13.960937l-13.738281 15.851563h24.085937l19.988281-23.0625zm0 0" fill="#ea4747"/><path d="m169.640625 393.609375 39.464844-39.464844-36.902344-36.898437-25.113281 25.796875zm0 0" fill="#c1e9f4"/><path d="m248.566406 393.609375-39.460937-39.464844 36.902343-36.898437 25.109376 25.796875zm0 0" fill="#c1e9f4"/><g fill="#494949"><path d="m347.996094 480.222656v31.777344h-15.375v-31.777344c0-4.242187 3.445312-7.6875 7.6875-7.6875 4.242187 0 7.6875 3.445313 7.6875 7.6875zm0 0"/><path d="m70.214844 512v-31.777344c0-4.242187 3.441406-7.6875 7.6875-7.6875 4.242187 0 7.6875 3.445313 7.6875 7.6875v31.777344zm0 0"/></g></svg>